<?xml version="1.0" encoding="utf-8"?>
<!-- Generator: Adobe Illustrator 15.0.0, SVG Export Plug-In . SVG Version: 6.00 Build 0)  -->
<!DOCTYPE svg PUBLIC "-//W3C//DTD SVG 1.1//EN" "http://www.w3.org/Graphics/SVG/1.1/DTD/svg11.dtd">
<svg version="1.1" id="Layer_1" xmlns:serif="http://www.serif.com/"
	 xmlns="http://www.w3.org/2000/svg" xmlns:xlink="http://www.w3.org/1999/xlink" x="0px" y="0px" width="2021.736px"
	 height="380.952px" viewBox="-21.736 143.31 2021.736 380.952" enable-background="new -21.736 143.31 2021.736 380.952"
	 xml:space="preserve">
<g id="Layer-1" transform="matrix(1,0,0,1,-250,-575)" serif:id="Layer 1">
	<g transform="matrix(1,0,0,1,980.186,673.94)">
		<path fill="#5CBA5A" d="M959.062,334.82c25.968-1.083,46.889-23.093,60.096-41.865c0.947,23.403,9.65,41.865,41.275,41.865
			c28.613,0,53.718-19.201,78.546-44.784c16.758,25.481,39.745,44.76,70.959,44.76c55.269,0,47.711-56.721,33.355-46.013
			c-4.747,3.536-11.515,7.429-24.426,7.429c-19.165,0-34.297-19.244-45.809-43.932c25.021-28.509,51.218-57.568,81.731-74.76
			c7.565-4.266,0.394-35.402-25.975-35.402c-18.072,0-43.603,34.92-70.029,71.761c-7.592-25.207-12.127-49.304-13.905-60.749
			c-2.025-13.085-52.717-21.779-46.774,18.568c2.01,13.656,9.055,52.997,25.401,89.624c-17.399,21.465-33.891,37.202-47.488,37.202
			c-12.528,0-9.824-23.418-7.744-42.032c3.16-28.207,11.772-98.439,13.392-110.203c1.625-11.773-45.678,0.786-49.499,16.181
			c-2.192,8.861-3.96,34.076-8.46,75.203l-0.094-0.245c0,0-20.67,59.915-48.974,61.096c-12.503,0.528-9.827-23.418-7.736-42.032
			c3.155-28.207,11.769-98.439,13.394-110.203c1.619-11.773-45.686,0.786-49.504,16.181c-2.551,10.31-4.51,42.719-10.901,96.666
			C915.56,295.688,913.055,336.728,959.062,334.82"/>
	</g>
	<g transform="matrix(1,0,0,1,550.346,741.455)">
		<path fill="#595B60" d="M333.471,104.748c6.561,0.154,11.172,3.923,10.961,13.078c-0.918,39.353-61.636,41.741-61.636,41.741
			C284.972,140.55,308.72,104.173,333.471,104.748 M514.867,71.138c-22.013,0-45.342,30.26-49.984,36.946
			c0,0,0.761-13.225,3.23-27.338c2.474-14.108-45.552-1.829-49.127,15.305c-1.744,8.358-5.592,41.093-9.311,74.772
			c-20.79,27.471-54.825,60.96-97.225,60.96c-38.81,0-31.537-44.74-31.537-44.74s105.535,8.612,107.298-66.897
			c0.741-31.775-26.813-48.214-54.286-48.857c-56.052-1.307-99.134,49.764-100.674,115.812
			c-1.221,52.13,26.734,80.038,73.018,80.038c37.927,0,72.391-23.631,98.264-48.667c-2.287,21.581-3.896,37.279-3.896,37.279
			c-0.764,12.119,45.547,13.88,47.936-4.528c0,0,8.504-77.493,9.989-87.973c2.608-18.404,22.435-39.421,32.37-45.943
			c0,0,7.427,13.178,25.139,13.178c16.328,0,29.017-13.49,29.017-31.372C545.087,85.186,532.459,71.138,514.867,71.138"/>
	</g>
	<g transform="matrix(1,0,0,1,466.66,720.539)">
		<path fill="#595B60" d="M211.674,251.572c-24.799,2.57-25.73-20.48-25.73-20.48c-2.607-25.273,13.449-101.568,46.466-104.99
			c11.771-1.218,19.513,10.835,21.529,30.414C259.292,208.214,236.479,249.006,211.674,251.572 M-96.017,125.666
			c6.563,0,11.268,3.663,11.268,12.818c0,39.362-61.942,42.001-61.942,42.001C-144.958,161.426-120.772,125.666-96.017,125.666
			 M240.228,91.236c-25.221,2.605-43.499,31.259-43.499,31.259s1.716-12.959,2.229-22.63c0.508-9.667-47.154-0.302-50.351,26.167
			c-0.795,6.589-6.006,49.614-11.759,97.151c-11.282,13.948-26.531,28.666-40.802,28.666c-20.807,0-37.867-24.841-50.846-54.721
			c26.457-27.274,53.138-54.117,83.214-70.175c8.083-4.319-3.438-46.8-34.906-31.007c-22.008,11.047-43.036,33.017-64.025,57.252
			c-6.313-21.175-10.536-40.207-12.53-50.259c-2.328-11.727-49.761-16.83-47.534,9.409c1.39,16.343,8.491,51.127,21.728,85.471
			c-28.768,32.191-58.504,58.984-91.538,58.984c-47.654,0-48.182-48.846-48.182-48.846s107.281,9.232,107.281-68.746
			c0-31.78-28.598-47.068-56.079-47.068c-45.314,0-81.529,33.919-94.206,80.953c-6.328-3.313-12.093-7.973-16.252-14.575
			c-4.037-6.414-34.535,10.398-13.927,33.604c6.571,7.399,15.745,11.504,25.436,13.764c-0.044,1.5-0.184,2.978-0.184,4.5
			c0,40.598,30.449,78.876,96.61,78.876c41.494,0,75.666-24.305,108.042-54.9c17.092,30.253,39.993,53.759,69.149,53.759
			c21.956,0,40.779-12.697,54.942-26.82c-6.011,49.724-11.494,95.186-12.056,100.175c-1.252,11.02,44.438,8.282,48.241-14.238
			c1.738-10.316,9.348-71.077,9.348-71.077s11.29,14.523,37.344,11.822c37.129-3.84,92.535-49.204,84.383-136.284
			C294.613,99.526,265.447,88.624,240.228,91.236"/>
	</g>
	<g transform="matrix(1,0,0,1,658.647,644.29)">
		<path fill="#595B60" d="M491.093,149.382c16.365,0,29.631-13.272,29.631-29.637c0-16.37-13.266-29.64-29.631-29.64
			c-16.37,0-29.643,13.27-29.643,29.64C461.451,136.11,474.723,149.382,491.093,149.382"/>
	</g>
	<g transform="matrix(1,0,0,1,715.284,741.719)">
		<path fill="#595B60" d="M573.523,104.484c6.563,0.154,11.182,3.923,10.968,13.078c-0.921,39.353-61.635,41.741-61.635,41.741
			C525.026,140.286,548.778,103.909,573.523,104.484 M1091.919,104.469c8.42,0,11.311,6.389,11.419,10.593
			c1.077,42.07-61.438,44.241-61.438,44.241C1044.386,138.073,1068.834,104.469,1091.919,104.469 M426.371,267.041
			c22.783-0.95,42.638-17.049,56.818-32.934c11.842,21.504,33.783,32.767,63.135,32.767c37.372,0,71.364-22.945,97.104-47.562
			c-2.46,20.333-4.308,35.479-4.714,37.664c-2.372,12.685,45.898,13.057,47.799,0.304c1.365-9.169,4-60.819,10.186-87.427
			c0,0,22.727-61.383,50.696-61.383c19.318,0,8.488,48.134,5.287,82.248c-3.44,36.646-7.384,76.447,35.971,76.447
			c22.656,0,41.94-14.242,55.698-28.711c12.086,19.432,32.665,28.484,58.808,28.484c35.562,0,68.898-19.902,94.349-42.868
			c10.557,29.338,36.021,42.803,69.035,42.803c25.991,0,48.49-9.964,61.21-20.174c22.145-17.802,8.174-42.874-0.919-35.641
			c-19.221,15.31-39.562,20.226-56.822,20.226c-36.424,0-30.176-44.507-30.176-44.507s107.319,9.323,107.319-68.839
			c0-30.492-27.446-46.967-57.18-46.967c-55.811,0-97.366,53.989-97.757,118.252c-19.339,20.333-47.33,42.061-81.659,42.061
			c-37.857,0-33.123-44.047-31.844-55.517c4.331-38.918,30.446-71.002,53.596-71.002c15.469,0,14.978,19.304,3.22,37.031
			c-5.439,8.192,52.104,14.198,52.104-22.744c0-33.825-30.626-48.528-58.103-48.089c-56.013,0.899-98.594,56.446-97.141,120.573
			c0.202,8.894,1.23,16.884,2.91,24.125c-8.403,8.426-18.262,15.154-28.312,15.154c-9.192,0-10.018-13.268-8.358-31.925
			c2.414-27.11,6.555-41.703,8.551-73.186c2.337-36.765-13.677-54.717-38.189-54.717c-40.106,0-63.43,36.522-63.43,36.522
			s1.357-19.059,3.589-28.964c2.738-12.193-45.305-4.457-49.135,12.624c-1.704,7.548-6.259,43.462-10.734,79.972
			c-20.838,27.363-54.677,60.376-96.773,60.376c-38.812,0-31.539-44.74-31.539-44.74s105.533,8.612,107.296-66.897
			c0.747-31.775-26.815-48.214-54.278-48.857c-56.061-1.307-99.142,49.764-100.685,115.812c-0.199,8.645,0.473,16.553,1.83,23.851
			c-9.836,10.5-21.566,19.58-33.178,20.059c-12.507,0.528-9.826-23.418-7.739-42.032c3.155-28.207,11.769-98.439,13.394-110.203
			c1.618-11.773-45.683,0.786-49.506,16.181c-2.548,10.31-4.51,42.719-10.901,96.666
			C382.87,227.911,380.363,268.949,426.371,267.041"/>
	</g>
</g>
</svg>
